<?xml version="1.0" encoding="UTF-8" standalone="no"?>
<!-- Created with Inkscape (http://www.inkscape.org/) -->

<svg
   xmlns:dc="http://purl.org/dc/elements/1.1/"
   xmlns:cc="http://creativecommons.org/ns#"
   xmlns:rdf="http://www.w3.org/1999/02/22-rdf-syntax-ns#"
   xmlns:svg="http://www.w3.org/2000/svg"
   xmlns="http://www.w3.org/2000/svg"
   xmlns:xlink="http://www.w3.org/1999/xlink"
   xmlns:sodipodi="http://sodipodi.sourceforge.net/DTD/sodipodi-0.dtd"
   xmlns:inkscape="http://www.inkscape.org/namespaces/inkscape"
   id="svg1306"
   sodipodi:docname="weather-storm.svg"
   viewBox="0 0 44.01 31"
   sodipodi:version="0.32"
   inkscape:output_extension="org.inkscape.output.svg.inkscape"
   inkscape:version="0.48.4 r9939"
   version="1.1"
   width="100%"
   height="100%">
  <defs
     id="defs1308">
    <linearGradient
       id="linearGradient13503"
       y2="-382.64999"
       gradientUnits="userSpaceOnUse"
       x2="245.64999"
       y1="-388.47"
       x1="238"
       inkscape:collect="always">
      <stop
         id="stop8400"
         style="stop-color:#ffffff"
         offset="0" />
      <stop
         id="stop8402"
         style="stop-color:#ffffff;stop-opacity:0"
         offset="1" />
    </linearGradient>
    <linearGradient
       id="linearGradient13501"
       y2="-386.95999"
       gradientUnits="userSpaceOnUse"
       x2="235.25999"
       y1="-390.44"
       x1="230.88"
       inkscape:collect="always">
      <stop
         id="stop8317"
         style="stop-color:#ffffff"
         offset="0" />
      <stop
         id="stop8319"
         style="stop-color:#ffffff;stop-opacity:0"
         offset="1" />
    </linearGradient>
    <linearGradient
       id="linearGradient13499"
       y2="-385.35001"
       gradientUnits="userSpaceOnUse"
       x2="252.7"
       y1="-391.31"
       x1="246.74001"
       inkscape:collect="always">
      <stop
         id="stop8383"
         style="stop-color:#ffffff"
         offset="0" />
      <stop
         id="stop8385"
         style="stop-color:#ffffff;stop-opacity:0"
         offset="1" />
    </linearGradient>
    <linearGradient
       id="linearGradient13497"
       y2="-388.54999"
       gradientUnits="userSpaceOnUse"
       x2="245.83"
       y1="-393.41"
       x1="240.07001"
       inkscape:collect="always">
      <stop
         id="stop8333"
         style="stop-color:#ffffff"
         offset="0" />
      <stop
         id="stop8335"
         style="stop-color:#ffffff;stop-opacity:0"
         offset="1" />
    </linearGradient>
    <linearGradient
       id="linearGradient13495"
       y2="-379.26999"
       gradientUnits="userSpaceOnUse"
       x2="266.35999"
       gradientTransform="translate(69,155)"
       y1="-392.31"
       x1="228.5"
       inkscape:collect="always">
      <stop
         id="stop8304"
         style="stop-color:#ffffff"
         offset="0" />
      <stop
         id="stop8306"
         style="stop-color:#ffffff;stop-opacity:0"
         offset="1" />
    </linearGradient>
    <linearGradient
       id="linearGradient13143"
       y2="-436.82999"
       xlink:href="#linearGradient8874"
       gradientUnits="userSpaceOnUse"
       x2="288.89999"
       y1="-441.23001"
       x1="284.79999"
       inkscape:collect="always" />
    <linearGradient
       id="linearGradient13141"
       y2="-436.70999"
       xlink:href="#linearGradient8874"
       gradientUnits="userSpaceOnUse"
       x2="289.76999"
       y1="-439.48001"
       x1="286.67001"
       inkscape:collect="always" />
    <linearGradient
       id="linearGradient13139"
       y2="-431.92001"
       xlink:href="#linearGradient8874"
       gradientUnits="userSpaceOnUse"
       x2="279.98001"
       gradientTransform="translate(-35,207)"
       y1="-437.10999"
       x1="275.94"
       inkscape:collect="always" />
    <linearGradient
       id="linearGradient13137"
       y2="-436.44"
       xlink:href="#linearGradient8874"
       gradientUnits="userSpaceOnUse"
       x2="289.39001"
       y1="-439.94"
       x1="285.94"
       inkscape:collect="always" />
    <linearGradient
       id="linearGradient13135"
       y2="-436.14001"
       xlink:href="#linearGradient8874"
       gradientUnits="userSpaceOnUse"
       x2="289.85001"
       y1="-441.29001"
       x1="286.51001"
       inkscape:collect="always" />
    <linearGradient
       id="linearGradient13133"
       y2="-436.32001"
       xlink:href="#linearGradient8874"
       gradientUnits="userSpaceOnUse"
       x2="289.67999"
       y1="-439.75"
       x1="287.51999"
       inkscape:collect="always" />
    <linearGradient
       id="linearGradient13131"
       y2="-431.97"
       xlink:href="#linearGradient8874"
       gradientUnits="userSpaceOnUse"
       x2="285.03"
       gradientTransform="translate(-34,207)"
       y1="-441.04999"
       x1="271.01999"
       inkscape:collect="always" />
    <linearGradient
       id="linearGradient11195"
       y2="-328.53"
       xlink:href="#linearGradient8874"
       gradientUnits="userSpaceOnUse"
       x2="-196.19"
       gradientTransform="translate(14.159,7.0828)"
       y1="-332.51001"
       x1="-190.48"
       inkscape:collect="always" />
    <linearGradient
       id="linearGradient11193"
       y2="-315.32999"
       xlink:href="#linearGradient8904"
       gradientUnits="userSpaceOnUse"
       x2="-192.41"
       gradientTransform="translate(13.805,2.8402)"
       y1="-328.07999"
       x1="-191.28999"
       inkscape:collect="always" />
    <linearGradient
       id="linearGradient8874"
       inkscape:collect="always">
      <stop
         id="stop8876"
         style="stop-color:#ffffff"
         offset="0" />
      <stop
         id="stop8878"
         style="stop-color:#ffffff;stop-opacity:0"
         offset="1" />
    </linearGradient>
    <linearGradient
       id="linearGradient8904"
       inkscape:collect="always">
      <stop
         id="stop8906"
         style="stop-color:#fcaf3e"
         offset="0" />
      <stop
         id="stop8908"
         style="stop-color:#fcaf3e;stop-opacity:0"
         offset="1" />
    </linearGradient>
    <radialGradient
       id="radialGradient13211"
       xlink:href="#linearGradient8874"
       gradientUnits="userSpaceOnUse"
       cy="-343.95999"
       cx="-229.75"
       gradientTransform="matrix(0.93095,0,0,0.44824,245.36,184.93)"
       r="14.501"
       inkscape:collect="always" />
    <radialGradient
       id="radialGradient13068"
       xlink:href="#linearGradient8874"
       gradientUnits="userSpaceOnUse"
       cy="-343.95999"
       cx="-229.75"
       gradientTransform="matrix(0.93095,0,0,0.44824,229.93,180.93)"
       r="14.501"
       inkscape:collect="always" />
    <linearGradient
       inkscape:collect="always"
       xlink:href="#linearGradient8874"
       id="linearGradient3103"
       gradientUnits="userSpaceOnUse"
       gradientTransform="translate(-34,207)"
       x1="271.01999"
       y1="-441.04999"
       x2="285.03"
       y2="-431.97" />
    <linearGradient
       inkscape:collect="always"
       xlink:href="#linearGradient8874"
       id="linearGradient3105"
       gradientUnits="userSpaceOnUse"
       x1="287.51999"
       y1="-439.75"
       x2="289.67999"
       y2="-436.32001" />
    <linearGradient
       inkscape:collect="always"
       xlink:href="#linearGradient8874"
       id="linearGradient3107"
       gradientUnits="userSpaceOnUse"
       x1="286.51001"
       y1="-441.29001"
       x2="289.85001"
       y2="-436.14001" />
    <linearGradient
       inkscape:collect="always"
       xlink:href="#linearGradient8874"
       id="linearGradient3109"
       gradientUnits="userSpaceOnUse"
       x1="285.94"
       y1="-439.94"
       x2="289.39001"
       y2="-436.44" />
    <linearGradient
       inkscape:collect="always"
       xlink:href="#linearGradient8874"
       id="linearGradient3111"
       gradientUnits="userSpaceOnUse"
       gradientTransform="translate(-35,207)"
       x1="275.94"
       y1="-437.10999"
       x2="279.98001"
       y2="-431.92001" />
    <linearGradient
       inkscape:collect="always"
       xlink:href="#linearGradient8874"
       id="linearGradient3113"
       gradientUnits="userSpaceOnUse"
       x1="286.67001"
       y1="-439.48001"
       x2="289.76999"
       y2="-436.70999" />
    <linearGradient
       inkscape:collect="always"
       xlink:href="#linearGradient8874"
       id="linearGradient3115"
       gradientUnits="userSpaceOnUse"
       x1="284.79999"
       y1="-441.23001"
       x2="288.89999"
       y2="-436.82999" />
  </defs>
  <sodipodi:namedview
     id="base"
     bordercolor="#666666"
     inkscape:pageshadow="2"
     inkscape:window-y="0"
     pagecolor="#ffffff"
     inkscape:window-height="1022"
     inkscape:grid-bbox="true"
     inkscape:zoom="11.313708"
     inkscape:window-x="0"
     showgrid="true"
     borderopacity="1.0"
     inkscape:current-layer="layer1"
     inkscape:cx="17.864366"
     inkscape:cy="3.541776"
     inkscape:showpageshadow="false"
     inkscape:window-width="1920"
     inkscape:pageopacity="0.0"
     inkscape:document-units="px"
     fit-margin-top="0"
     fit-margin-left="0"
     fit-margin-right="0"
     fit-margin-bottom="0"
     inkscape:window-maximized="1" />
  <g
     id="layer1"
     inkscape:label="Layer 1"
     inkscape:groupmode="layer"
     transform="translate(-1.98,-2)">
    <g
       id="g12825"
       transform="translate(-287.02,245)">
      <path
         id="path12827"
         style="fill:#555753"
         d="m 311.5,-243 c -2.77,0 -5.11,1.57 -6.41,3.81 -0.94,-0.47 -1.96,-0.81 -3.09,-0.81 -3.86,0 -7,3.14 -7,7 0,3.86 3.14,7 7,7 2.42,0 4.43,-1.32 5.69,-3.19 1.13,0.69 2.39,1.19 3.81,1.19 0.91,0 1.75,-0.23 2.56,-0.53 0.51,0.87 1.18,1.58 2,2.16 0,0.13 -0.06,0.24 -0.06,0.37 0,3.86 3.14,7 7,7 3.86,0 7,-3.14 7,-7 0,-2.37 -1.26,-4.36 -3.06,-5.62 0,-0.14 0.06,-0.25 0.06,-0.38 0,-3.86 -3.14,-7 -7,-7 -0.62,0 -1.18,0.22 -1.75,0.38 -1.19,-2.56 -3.74,-4.38 -6.75,-4.38 z"
         inkscape:connector-curvature="0" />
      <path
         id="path12829"
         style="fill:url(#linearGradient13495)"
         d="m 311.5,-242 c -2.78,0 -5.13,1.76 -6.06,4.22 -0.99,-0.71 -2.13,-1.22 -3.44,-1.22 -3.31,0 -6,2.69 -6,6 0,3.31 2.69,6 6,6 2.43,0 4.49,-1.46 5.44,-3.53 1.12,0.92 2.5,1.53 4.06,1.53 1.07,0 2.04,-0.32 2.94,-0.78 0.4,1 1.1,1.79 1.94,2.44 -0.19,0.59 -0.38,1.19 -0.38,1.84 0,3.59 2.91,6.5 6.5,6.5 3.59,0 6.5,-2.91 6.5,-6.5 0,-2.36 -1.33,-4.33 -3.22,-5.47 0.06,-0.35 0.22,-0.66 0.22,-1.03 0,-3.31 -2.69,-6 -6,-6 -0.85,0 -1.67,0.18 -2.41,0.5 -0.85,-2.59 -3.21,-4.5 -6.09,-4.5 z"
         inkscape:connector-curvature="0" />
      <path
         id="path12831"
         sodipodi:rx="6.7396116"
         sodipodi:ry="6.7396116"
         style="fill:#888a85"
         sodipodi:type="arc"
         d="m 248.54804,-383.6666 c 0,3.72219 -3.01743,6.73962 -6.73961,6.73962 -3.72219,0 -6.73962,-3.01743 -6.73962,-6.73962 0,-3.72218 3.01743,-6.73961 6.73962,-6.73961 3.72218,0 6.73961,3.01743 6.73961,6.73961 z"
         transform="matrix(0.96445,0,0,0.96445,89.289,144.53)"
         sodipodi:cy="-383.6666"
         sodipodi:cx="241.80843" />
      <g
         id="g12833">
        <path
           id="path12835"
           sodipodi:rx="6.2313786"
           sodipodi:ry="6.2313786"
           style="fill:#888a85"
           sodipodi:type="arc"
           d="m 250.18322,-389.30136 c 0,3.44149 -2.78988,6.23138 -6.23138,6.23138 -3.44149,0 -6.23138,-2.78989 -6.23138,-6.23138 0,-3.4415 2.78989,-6.23138 6.23138,-6.23138 3.4415,0 6.23138,2.78988 6.23138,6.23138 z"
           transform="matrix(0.88263,0,0,0.88263,96.181,108.11)"
           sodipodi:cy="-389.30136"
           sodipodi:cx="243.95184" />
        <path
           id="path12837"
           sodipodi:rx="6.2313786"
           sodipodi:ry="6.2313786"
           style="opacity:0.49444;fill:url(#linearGradient13497)"
           sodipodi:type="arc"
           d="m 250.18322,-389.30136 c 0,3.44149 -2.78988,6.23138 -6.23138,6.23138 -3.44149,0 -6.23138,-2.78989 -6.23138,-6.23138 0,-3.4415 2.78989,-6.23138 6.23138,-6.23138 3.4415,0 6.23138,2.78988 6.23138,6.23138 z"
           transform="matrix(0.88263,0,0,0.88263,96.181,108.11)"
           sodipodi:cy="-389.30136"
           sodipodi:cx="243.95184" />
      </g>
      <g
         id="g12839">
        <path
           id="path12841"
           sodipodi:rx="6.0325046"
           sodipodi:ry="6.0325046"
           style="fill:#888a85"
           sodipodi:type="arc"
           d="m 257.25429,-385.7879 c 0,3.33166 -2.70084,6.0325 -6.0325,6.0325 -3.33166,0 -6.03251,-2.70084 -6.03251,-6.0325 0,-3.33166 2.70085,-6.03251 6.03251,-6.03251 3.33166,0 6.0325,2.70085 6.0325,6.03251 z"
           transform="matrix(0.91173,0,0,0.91173,90.454,120.23)"
           sodipodi:cy="-385.7879"
           sodipodi:cx="251.22179" />
        <path
           id="path12843"
           sodipodi:rx="6.0325046"
           sodipodi:ry="6.0325046"
           style="opacity:0.49444;fill:url(#linearGradient13499)"
           sodipodi:type="arc"
           d="m 257.25429,-385.7879 c 0,3.33166 -2.70084,6.0325 -6.0325,6.0325 -3.33166,0 -6.03251,-2.70084 -6.03251,-6.0325 0,-3.33166 2.70085,-6.03251 6.03251,-6.03251 3.33166,0 6.0325,2.70085 6.0325,6.03251 z"
           transform="matrix(0.91173,0,0,0.91173,90.454,120.23)"
           sodipodi:cy="-385.7879"
           sodipodi:cx="251.22179" />
      </g>
      <g
         id="g12845">
        <path
           id="path12847"
           sodipodi:rx="4.3752232"
           sodipodi:ry="4.3752232"
           style="fill:#888a85"
           sodipodi:type="arc"
           d="m 237.80885,-387.88715 c 0,2.41637 -1.95886,4.37523 -4.37523,4.37523 -2.41636,0 -4.37522,-1.95886 -4.37522,-4.37523 0,-2.41637 1.95886,-4.37522 4.37522,-4.37522 2.41637,0 4.37523,1.95885 4.37523,4.37522 z"
           transform="matrix(1.1428,0,0,1.1428,35.232,210.28)"
           sodipodi:cy="-387.88715"
           sodipodi:cx="233.43362" />
        <path
           id="path12849"
           sodipodi:rx="4.3752232"
           sodipodi:ry="4.3752232"
           style="opacity:0.49444;fill:url(#linearGradient13501)"
           sodipodi:type="arc"
           d="m 237.80885,-387.88715 c 0,2.41637 -1.95886,4.37523 -4.37523,4.37523 -2.41636,0 -4.37522,-1.95886 -4.37522,-4.37523 0,-2.41637 1.95886,-4.37522 4.37522,-4.37522 2.41637,0 4.37523,1.95885 4.37523,4.37522 z"
           transform="matrix(1.1428,0,0,1.1428,35.232,210.28)"
           sodipodi:cy="-387.88715"
           sodipodi:cx="233.43362" />
      </g>
      <g
         id="g12851">
        <path
           id="path12853"
           sodipodi:rx="6.7396116"
           sodipodi:ry="6.7396116"
           style="fill:#888a85"
           sodipodi:type="arc"
           d="m 248.54804,-383.6666 c 0,3.72219 -3.01743,6.73962 -6.73961,6.73962 -3.72219,0 -6.73962,-3.01743 -6.73962,-6.73962 0,-3.72218 3.01743,-6.73961 6.73962,-6.73961 3.72218,0 6.73961,3.01743 6.73961,6.73961 z"
           transform="matrix(1.0386,0,0,1.0386,59.849,169.49)"
           sodipodi:cy="-383.6666"
           sodipodi:cx="241.80843" />
        <path
           id="path12855"
           sodipodi:rx="6.7396116"
           sodipodi:ry="6.7396116"
           style="opacity:0.49444;fill:url(#linearGradient13503)"
           sodipodi:type="arc"
           d="m 248.54804,-383.6666 c 0,3.72219 -3.01743,6.73962 -6.73961,6.73962 -3.72219,0 -6.73962,-3.01743 -6.73962,-6.73962 0,-3.72218 3.01743,-6.73961 6.73962,-6.73961 3.72218,0 6.73961,3.01743 6.73961,6.73961 z"
           transform="matrix(1.0386,0,0,1.0386,59.849,169.49)"
           sodipodi:cy="-383.6666"
           sodipodi:cx="241.80843" />
      </g>
    </g>
    <g
       id="g12857"
       transform="translate(-215.01,253)">
      <path
         id="path12859"
         sodipodi:nodetypes="ccsscsssscsscc"
         style="fill:#888a85;stroke:#555753;stroke-miterlimit:2"
         d="m 246.5,-238.5 c -2.27,0 -4.11,1.55 -4.72,3.63 -0.69,-0.37 -1.44,-0.63 -2.28,-0.63 -2.76,0 -5,2.24 -5,5 0,0.58 0.16,1.11 0.34,1.63 -1.37,0.77 -2.34,2.18 -2.34,3.87 0,2.48 2.02,4.5 4.5,4.5 h 19 c 2.48,0 4.5,-2.02 4.5,-4.5 0,-1.69 -0.97,-3.1 -2.34,-3.87 0.18,-0.52 0.34,-1.05 0.34,-1.63 0,-2.76 -2.24,-5 -5,-5 -0.84,0 -1.59,0.26 -2.28,0.63 -0.61,-2.08 -2.45,-3.63 -4.72,-3.63 z"
         inkscape:connector-curvature="0" />
      <path
         id="path12861"
         sodipodi:nodetypes="ccsscsssscsscc"
         style="fill:url(#linearGradient3103)"
         d="m 246.5,-238 c -2.19,0 -3.72,1.34 -4.4,3.84 -0.66,-0.34 -1.54,-0.83 -2.35,-0.83 -2.72,0 -4.76,1.94 -4.76,4.55 0,0.54 0.27,1.33 0.45,1.82 -1.33,0.73 -2.44,1.89 -2.44,3.37 0,2.35 1.55,4.25 4.34,4.25 h 18.32 c 2.77,0 4.34,-1.9 4.34,-4.25 0,-1.59 -1.11,-2.67 -2.44,-3.39 0.18,-0.49 0.47,-1.26 0.47,-1.8 0,-2.61 -2.12,-4.57 -4.78,-4.57 -0.81,0 -1.64,0.49 -2.31,0.83 -0.65,-2.42 -2.25,-3.82 -4.44,-3.82 z"
         inkscape:connector-curvature="0" />
      <path
         id="path12863"
         sodipodi:rx="3.3125"
         sodipodi:ry="3.3125"
         style="fill:#888a85"
         sodipodi:type="arc"
         d="m 291.6875,-437.59375 c 0,1.82944 -1.48306,3.3125 -3.3125,3.3125 -1.82944,0 -3.3125,-1.48306 -3.3125,-3.3125 0,-1.82944 1.48306,-3.3125 3.3125,-3.3125 1.82944,0 3.3125,1.48306 3.3125,3.3125 z"
         transform="matrix(1.0566,0,0,1.0566,-58.198,228.86)"
         sodipodi:cy="-437.59375"
         sodipodi:cx="288.375" />
      <path
         id="path12865"
         sodipodi:rx="3.3125"
         sodipodi:ry="3.3125"
         style="opacity:0.47778003;fill:url(#linearGradient3105)"
         sodipodi:type="arc"
         d="m 291.6875,-437.59375 c 0,1.82944 -1.48306,3.3125 -3.3125,3.3125 -1.82944,0 -3.3125,-1.48306 -3.3125,-3.3125 0,-1.82944 1.48306,-3.3125 3.3125,-3.3125 1.82944,0 3.3125,1.48306 3.3125,3.3125 z"
         transform="matrix(1.0566,0,0,1.0566,-58.198,228.86)"
         sodipodi:cy="-437.59375"
         sodipodi:cx="288.375" />
      <rect
         id="rect12867"
         style="fill:#888a85"
         height="9"
         width="20"
         y="-231"
         x="237" />
      <path
         id="path12869"
         sodipodi:rx="3.3125"
         sodipodi:ry="3.3125"
         style="fill:#888a85"
         sodipodi:type="arc"
         d="m 291.6875,-437.59375 c 0,1.82944 -1.48306,3.3125 -3.3125,3.3125 -1.82944,0 -3.3125,-1.48306 -3.3125,-3.3125 0,-1.82944 1.48306,-3.3125 3.3125,-3.3125 1.82944,0 3.3125,1.48306 3.3125,3.3125 z"
         transform="matrix(0.90566,0,0,0.90566,-24.17,171.31)"
         sodipodi:cy="-437.59375"
         sodipodi:cx="288.375" />
      <path
         id="path12871"
         sodipodi:rx="3.3125"
         sodipodi:ry="3.3125"
         style="fill:#888a85"
         sodipodi:type="arc"
         d="m 291.6875,-437.59375 c 0,1.82944 -1.48306,3.3125 -3.3125,3.3125 -1.82944,0 -3.3125,-1.48306 -3.3125,-3.3125 0,-1.82944 1.48306,-3.3125 3.3125,-3.3125 1.82944,0 3.3125,1.48306 3.3125,3.3125 z"
         transform="matrix(1.0566,0,0,1.0566,-51.198,231.86)"
         sodipodi:cy="-437.59375"
         sodipodi:cx="288.375" />
      <path
         id="path12873"
         sodipodi:rx="3.3125"
         sodipodi:ry="3.3125"
         style="opacity:0.47778003;fill:url(#linearGradient3107)"
         sodipodi:type="arc"
         d="m 291.6875,-437.59375 c 0,1.82944 -1.48306,3.3125 -3.3125,3.3125 -1.82944,0 -3.3125,-1.48306 -3.3125,-3.3125 0,-1.82944 1.48306,-3.3125 3.3125,-3.3125 1.82944,0 3.3125,1.48306 3.3125,3.3125 z"
         transform="matrix(1.0566,0,0,1.0566,-51.198,231.86)"
         sodipodi:cy="-437.59375"
         sodipodi:cx="288.375" />
      <path
         id="path12875"
         sodipodi:rx="3.3125"
         sodipodi:ry="3.3125"
         style="fill:#888a85"
         sodipodi:type="arc"
         d="m 291.6875,-437.59375 c 0,1.82944 -1.48306,3.3125 -3.3125,3.3125 -1.82944,0 -3.3125,-1.48306 -3.3125,-3.3125 0,-1.82944 1.48306,-3.3125 3.3125,-3.3125 1.82944,0 3.3125,1.48306 3.3125,3.3125 z"
         transform="matrix(1.0566,0,0,1.0566,-65.198,231.86)"
         sodipodi:cy="-437.59375"
         sodipodi:cx="288.375" />
      <path
         id="path12877"
         sodipodi:rx="3.3125"
         sodipodi:ry="3.3125"
         style="opacity:0.47778003;fill:url(#linearGradient3109)"
         sodipodi:type="arc"
         d="m 291.6875,-437.59375 c 0,1.82944 -1.48306,3.3125 -3.3125,3.3125 -1.82944,0 -3.3125,-1.48306 -3.3125,-3.3125 0,-1.82944 1.48306,-3.3125 3.3125,-3.3125 1.82944,0 3.3125,1.48306 3.3125,3.3125 z"
         transform="matrix(1.0566,0,0,1.0566,-65.198,231.86)"
         sodipodi:cy="-437.59375"
         sodipodi:cx="288.375" />
      <path
         id="path12879"
         style="fill:#888a85"
         d="m 245.47,-233.97 c -3.58,0 -6.47,2.92 -6.47,6.5 0,2.37 1.35,4.34 3.25,5.47 h 6.47 c 1.9,-1.13 3.25,-3.13 3.25,-5.5 0,-3.58 -2.92,-6.47 -6.5,-6.47 z"
         inkscape:connector-curvature="0" />
      <path
         id="path12881"
         style="opacity:0.47778003;fill:url(#linearGradient3111)"
         d="m 245.5,-234 c -3.59,0 -6.5,2.91 -6.5,6.5 0,2.38 1.34,4.37 3.25,5.5 h 6.5 c 1.91,-1.13 3.25,-3.12 3.25,-5.5 0,-3.59 -2.91,-6.5 -6.5,-6.5 z"
         inkscape:connector-curvature="0" />
      <path
         id="path12883"
         sodipodi:rx="3.3125"
         sodipodi:ry="3.3125"
         style="opacity:0.47778003;fill:url(#linearGradient3113)"
         sodipodi:type="arc"
         d="m 291.6875,-437.59375 c 0,1.82944 -1.48306,3.3125 -3.3125,3.3125 -1.82944,0 -3.3125,-1.48306 -3.3125,-3.3125 0,-1.82944 1.48306,-3.3125 3.3125,-3.3125 1.82944,0 3.3125,1.48306 3.3125,3.3125 z"
         transform="matrix(0.90566,0,0,0.90566,-24.17,171.31)"
         sodipodi:cy="-437.59375"
         sodipodi:cx="288.375" />
      <path
         id="path12885"
         sodipodi:nodetypes="ccss"
         style="fill:#555753;fill-rule:evenodd"
         d="m 258.96,-230.33 c -0.01,2.68 -3.27,3.71 -3.27,3.71 0,0 2.35,-1.63 2.33,-3.7 0,0 0.94,-0.01 0.94,-0.01 z"
         inkscape:connector-curvature="0" />
      <path
         id="path12887"
         sodipodi:rx="3.3125"
         sodipodi:ry="3.3125"
         style="fill:#888a85"
         sodipodi:type="arc"
         d="m 291.6875,-437.59375 c 0,1.82944 -1.48306,3.3125 -3.3125,3.3125 -1.82944,0 -3.3125,-1.48306 -3.3125,-3.3125 0,-1.82944 1.48306,-3.3125 3.3125,-3.3125 1.82944,0 3.3125,1.48306 3.3125,3.3125 z"
         transform="matrix(1.2075,0,0,1.2075,-98.227,302.42)"
         sodipodi:cy="-437.59375"
         sodipodi:cx="288.375" />
      <path
         id="path12889"
         sodipodi:rx="3.3125"
         sodipodi:ry="3.3125"
         style="opacity:0.47778003;fill:url(#linearGradient3115)"
         sodipodi:type="arc"
         d="m 291.6875,-437.59375 c 0,1.82944 -1.48306,3.3125 -3.3125,3.3125 -1.82944,0 -3.3125,-1.48306 -3.3125,-3.3125 0,-1.82944 1.48306,-3.3125 3.3125,-3.3125 1.82944,0 3.3125,1.48306 3.3125,3.3125 z"
         transform="matrix(1.2075,0,0,1.2075,-98.227,302.42)"
         sodipodi:cy="-437.59375"
         sodipodi:cx="288.375" />
    </g>
    <path
       id="path13209"
       sodipodi:nodetypes="ccsscsscscsscc"
       style="fill:url(#radialGradient13211)"
       d="m 31.626,15 c -2,0 -3.685,1.079 -4.53,2.614 -0.595,-0.221 -1.245,-0.353 -1.926,-0.353 -2.83,0 -5.118,2.118 -5.118,4.718 0,0.453 0.145,0.856 0.275,1.272 -1.382,0.865 -2.347,2.253 -2.347,3.904 0,2.653 0.651,4.994 5.227,4.806 0.045,-0.002 17.452,0.097 17.701,-0.018 3.085,0.226 4.072,-2.445 4.072,-4.699 0,-1.701 -0.837,-3.05 -2.31,-3.878 0.048,-0.258 -0.038,-0.551 -0.038,-0.822 0,-2.599 -2.306,-4.718 -5.136,-4.718 -0.394,0 -0.732,0.135 -1.101,0.212 C 35.657,16.27 33.81,15 31.626,15 z"
       inkscape:connector-curvature="0" />
    <g
       id="g12891"
       transform="translate(-230.02,248.98)">
      <path
         id="path12893"
         sodipodi:nodetypes="ccsscsssscsscc"
         style="fill:#888a85;stroke:#555753;stroke-miterlimit:2"
         d="m 246.5,-238.5 c -2.27,0 -4.11,1.55 -4.72,3.63 -0.69,-0.37 -1.44,-0.63 -2.28,-0.63 -2.76,0 -5,2.24 -5,5 0,0.58 0.16,1.11 0.34,1.63 -1.37,0.77 -2.34,2.18 -2.34,3.87 0,2.48 2.02,4.5 4.5,4.5 h 19 c 2.48,0 4.5,-2.02 4.5,-4.5 0,-1.69 -0.97,-3.1 -2.34,-3.87 0.18,-0.52 0.34,-1.05 0.34,-1.63 0,-2.76 -2.24,-5 -5,-5 -0.84,0 -1.59,0.26 -2.28,0.63 -0.61,-2.08 -2.45,-3.63 -4.72,-3.63 z"
         inkscape:connector-curvature="0" />
      <path
         id="path12895"
         sodipodi:nodetypes="ccsscsssscsscc"
         style="fill:url(#linearGradient13131)"
         d="m 246.5,-238 c -2.19,0 -3.72,1.34 -4.4,3.84 -0.66,-0.34 -1.54,-0.83 -2.35,-0.83 -2.72,0 -4.76,1.94 -4.76,4.55 0,0.54 0.27,1.33 0.45,1.82 -1.33,0.73 -2.44,1.89 -2.44,3.37 0,2.35 1.55,4.25 4.34,4.25 h 18.32 c 2.77,0 4.34,-1.9 4.34,-4.25 0,-1.59 -1.11,-2.67 -2.44,-3.39 0.18,-0.49 0.47,-1.26 0.47,-1.8 0,-2.61 -2.12,-4.57 -4.78,-4.57 -0.81,0 -1.64,0.49 -2.31,0.83 -0.65,-2.42 -2.25,-3.82 -4.44,-3.82 z"
         inkscape:connector-curvature="0" />
      <path
         id="path12897"
         sodipodi:rx="3.3125"
         sodipodi:ry="3.3125"
         style="fill:#888a85"
         sodipodi:type="arc"
         d="m 291.6875,-437.59375 c 0,1.82944 -1.48306,3.3125 -3.3125,3.3125 -1.82944,0 -3.3125,-1.48306 -3.3125,-3.3125 0,-1.82944 1.48306,-3.3125 3.3125,-3.3125 1.82944,0 3.3125,1.48306 3.3125,3.3125 z"
         transform="matrix(1.0566,0,0,1.0566,-58.198,228.86)"
         sodipodi:cy="-437.59375"
         sodipodi:cx="288.375" />
      <path
         id="path12899"
         sodipodi:rx="3.3125"
         sodipodi:ry="3.3125"
         style="opacity:0.47778003;fill:url(#linearGradient13133)"
         sodipodi:type="arc"
         d="m 291.6875,-437.59375 c 0,1.82944 -1.48306,3.3125 -3.3125,3.3125 -1.82944,0 -3.3125,-1.48306 -3.3125,-3.3125 0,-1.82944 1.48306,-3.3125 3.3125,-3.3125 1.82944,0 3.3125,1.48306 3.3125,3.3125 z"
         transform="matrix(1.0566,0,0,1.0566,-58.198,228.86)"
         sodipodi:cy="-437.59375"
         sodipodi:cx="288.375" />
      <rect
         id="rect12901"
         style="fill:#888a85"
         height="9"
         width="20"
         y="-231"
         x="237" />
      <path
         id="path12903"
         sodipodi:rx="3.3125"
         sodipodi:ry="3.3125"
         style="fill:#888a85"
         sodipodi:type="arc"
         d="m 291.6875,-437.59375 c 0,1.82944 -1.48306,3.3125 -3.3125,3.3125 -1.82944,0 -3.3125,-1.48306 -3.3125,-3.3125 0,-1.82944 1.48306,-3.3125 3.3125,-3.3125 1.82944,0 3.3125,1.48306 3.3125,3.3125 z"
         transform="matrix(0.90566,0,0,0.90566,-24.17,171.31)"
         sodipodi:cy="-437.59375"
         sodipodi:cx="288.375" />
      <path
         id="path12905"
         sodipodi:rx="3.3125"
         sodipodi:ry="3.3125"
         style="fill:#888a85"
         sodipodi:type="arc"
         d="m 291.6875,-437.59375 c 0,1.82944 -1.48306,3.3125 -3.3125,3.3125 -1.82944,0 -3.3125,-1.48306 -3.3125,-3.3125 0,-1.82944 1.48306,-3.3125 3.3125,-3.3125 1.82944,0 3.3125,1.48306 3.3125,3.3125 z"
         transform="matrix(1.0566,0,0,1.0566,-51.198,231.86)"
         sodipodi:cy="-437.59375"
         sodipodi:cx="288.375" />
      <path
         id="path12907"
         sodipodi:rx="3.3125"
         sodipodi:ry="3.3125"
         style="opacity:0.47778003;fill:url(#linearGradient13135)"
         sodipodi:type="arc"
         d="m 291.6875,-437.59375 c 0,1.82944 -1.48306,3.3125 -3.3125,3.3125 -1.82944,0 -3.3125,-1.48306 -3.3125,-3.3125 0,-1.82944 1.48306,-3.3125 3.3125,-3.3125 1.82944,0 3.3125,1.48306 3.3125,3.3125 z"
         transform="matrix(1.0566,0,0,1.0566,-51.198,231.86)"
         sodipodi:cy="-437.59375"
         sodipodi:cx="288.375" />
      <path
         id="path12909"
         sodipodi:rx="3.3125"
         sodipodi:ry="3.3125"
         style="fill:#888a85"
         sodipodi:type="arc"
         d="m 291.6875,-437.59375 c 0,1.82944 -1.48306,3.3125 -3.3125,3.3125 -1.82944,0 -3.3125,-1.48306 -3.3125,-3.3125 0,-1.82944 1.48306,-3.3125 3.3125,-3.3125 1.82944,0 3.3125,1.48306 3.3125,3.3125 z"
         transform="matrix(1.0566,0,0,1.0566,-65.198,231.86)"
         sodipodi:cy="-437.59375"
         sodipodi:cx="288.375" />
      <path
         id="path12911"
         sodipodi:rx="3.3125"
         sodipodi:ry="3.3125"
         style="opacity:0.47778003;fill:url(#linearGradient13137)"
         sodipodi:type="arc"
         d="m 291.6875,-437.59375 c 0,1.82944 -1.48306,3.3125 -3.3125,3.3125 -1.82944,0 -3.3125,-1.48306 -3.3125,-3.3125 0,-1.82944 1.48306,-3.3125 3.3125,-3.3125 1.82944,0 3.3125,1.48306 3.3125,3.3125 z"
         transform="matrix(1.0566,0,0,1.0566,-65.198,231.86)"
         sodipodi:cy="-437.59375"
         sodipodi:cx="288.375" />
      <path
         id="path12913"
         style="fill:#888a85"
         d="m 245.47,-233.97 c -3.58,0 -6.47,2.92 -6.47,6.5 0,2.37 1.35,4.34 3.25,5.47 h 6.47 c 1.9,-1.13 3.25,-3.13 3.25,-5.5 0,-3.58 -2.92,-6.47 -6.5,-6.47 z"
         inkscape:connector-curvature="0" />
      <path
         id="path12915"
         style="opacity:0.47778003;fill:url(#linearGradient13139)"
         d="m 245.5,-234 c -3.59,0 -6.5,2.91 -6.5,6.5 0,2.38 1.34,4.37 3.25,5.5 h 6.5 c 1.91,-1.13 3.25,-3.12 3.25,-5.5 0,-3.59 -2.91,-6.5 -6.5,-6.5 z"
         inkscape:connector-curvature="0" />
      <path
         id="path12917"
         sodipodi:rx="3.3125"
         sodipodi:ry="3.3125"
         style="opacity:0.47778003;fill:url(#linearGradient13141)"
         sodipodi:type="arc"
         d="m 291.6875,-437.59375 c 0,1.82944 -1.48306,3.3125 -3.3125,3.3125 -1.82944,0 -3.3125,-1.48306 -3.3125,-3.3125 0,-1.82944 1.48306,-3.3125 3.3125,-3.3125 1.82944,0 3.3125,1.48306 3.3125,3.3125 z"
         transform="matrix(0.90566,0,0,0.90566,-24.17,171.31)"
         sodipodi:cy="-437.59375"
         sodipodi:cx="288.375" />
      <path
         id="path12919"
         sodipodi:nodetypes="ccss"
         style="fill:#555753;fill-rule:evenodd"
         d="m 258.96,-230.33 c -0.01,2.68 -3.27,3.71 -3.27,3.71 0,0 2.35,-1.63 2.33,-3.7 0,0 0.94,-0.01 0.94,-0.01 z"
         inkscape:connector-curvature="0" />
      <path
         id="path12921"
         sodipodi:rx="3.3125"
         sodipodi:ry="3.3125"
         style="fill:#888a85"
         sodipodi:type="arc"
         d="m 291.6875,-437.59375 c 0,1.82944 -1.48306,3.3125 -3.3125,3.3125 -1.82944,0 -3.3125,-1.48306 -3.3125,-3.3125 0,-1.82944 1.48306,-3.3125 3.3125,-3.3125 1.82944,0 3.3125,1.48306 3.3125,3.3125 z"
         transform="matrix(1.2075,0,0,1.2075,-98.227,302.42)"
         sodipodi:cy="-437.59375"
         sodipodi:cx="288.375" />
      <path
         id="path12923"
         sodipodi:rx="3.3125"
         sodipodi:ry="3.3125"
         style="opacity:0.47778003;fill:url(#linearGradient13143)"
         sodipodi:type="arc"
         d="m 291.6875,-437.59375 c 0,1.82944 -1.48306,3.3125 -3.3125,3.3125 -1.82944,0 -3.3125,-1.48306 -3.3125,-3.3125 0,-1.82944 1.48306,-3.3125 3.3125,-3.3125 1.82944,0 3.3125,1.48306 3.3125,3.3125 z"
         transform="matrix(1.2075,0,0,1.2075,-98.227,302.42)"
         sodipodi:cy="-437.59375"
         sodipodi:cx="288.375" />
    </g>
    <path
       id="path11418"
       sodipodi:nodetypes="ccsscsscscsscc"
       style="fill:url(#radialGradient13068)"
       d="m 16.189,11 c -2,0 -3.686,1.08 -4.531,2.615 -0.595,-0.222 -1.244,-0.353 -1.9257,-0.353 -2.8302,0 -5.1175,2.118 -5.1175,4.717 0,0.454 0.1445,0.857 0.2751,1.272 -1.3823,0.865 -2.3478,2.254 -2.3478,3.905 0,2.653 0.6516,4.993 5.2276,4.806 0.0451,-0.002 17.451,0.097 17.7,-0.018 3.085,0.226 4.072,-2.446 4.072,-4.7 0,-1.7 -0.837,-3.05 -2.309,-3.877 0.048,-0.259 -0.039,-0.551 -0.039,-0.823 0,-2.599 -2.305,-4.717 -5.136,-4.717 -0.393,0 -0.732,0.135 -1.1,0.212 C 20.2187,12.271 18.3727,11 16.1887,11 z"
       inkscape:connector-curvature="0" />
  </g>
  <metadata
     id="metadata3101">
    <rdf:RDF>
      <cc:Work>
        <dc:format>image/svg+xml</dc:format>
        <dc:type
           rdf:resource="http://purl.org/dc/dcmitype/StillImage" />
        <cc:license
           rdf:resource="http://creativecommons.org/licenses/publicdomain/" />
        <dc:publisher>
          <cc:Agent
             rdf:about="http://openclipart.org/">
            <dc:title>Openclipart</dc:title>
          </cc:Agent>
        </dc:publisher>
        <dc:title>tango weather storm</dc:title>
        <dc:date>2010-03-08T06:59:39</dc:date>
        <dc:description>Weather icon from Tango Project: http://tango.freedesktop.org/Tango_Desktop_Project\n&lt;br&gt;&lt;br&gt;\nTango Project icons are Public Domain.</dc:description>
        <dc:source>https://openclipart.org/detail/30163/tango-weather-storm-by-warszawianka</dc:source>
        <dc:creator>
          <cc:Agent>
            <dc:title>warszawianka</dc:title>
          </cc:Agent>
        </dc:creator>
        <dc:subject>
          <rdf:Bag>
            <rdf:li>cloud</rdf:li>
            <rdf:li>icon</rdf:li>
            <rdf:li>rain</rdf:li>
            <rdf:li>storm</rdf:li>
            <rdf:li>thunder</rdf:li>
            <rdf:li>weather</rdf:li>
          </rdf:Bag>
        </dc:subject>
      </cc:Work>
      <cc:License
         rdf:about="http://creativecommons.org/licenses/publicdomain/">
        <cc:permits
           rdf:resource="http://creativecommons.org/ns#Reproduction" />
        <cc:permits
           rdf:resource="http://creativecommons.org/ns#Distribution" />
        <cc:permits
           rdf:resource="http://creativecommons.org/ns#DerivativeWorks" />
      </cc:License>
    </rdf:RDF>
  </metadata>
</svg>
